<?xml version="1.0" encoding="UTF-8" standalone="no"?>
<!-- Generator: Adobe Illustrator 14.0.0, SVG Export Plug-In . SVG Version: 6.00 Build 43363)  -->

<svg
   xmlns:dc="http://purl.org/dc/elements/1.1/"
   xmlns:cc="http://creativecommons.org/ns#"
   xmlns:rdf="http://www.w3.org/1999/02/22-rdf-syntax-ns#"
   xmlns:svg="http://www.w3.org/2000/svg"
   xmlns="http://www.w3.org/2000/svg"
   xmlns:sodipodi="http://sodipodi.sourceforge.net/DTD/sodipodi-0.dtd"
   xmlns:inkscape="http://www.inkscape.org/namespaces/inkscape"
   version="1.1"
   id="Calque_1"
   x="0px"
   y="0px"
   width="194.1158"
   height="73.449219"
   viewBox="0 0 194.1158 73.449219"
   enable-background="new 0 0 210 103"
   xml:space="preserve"
   sodipodi:docname="inria.svg"
   inkscape:version="0.92.4 5da689c313, 2019-01-14"><metadata
   id="metadata80"><rdf:RDF><cc:Work
       rdf:about=""><dc:format>image/svg+xml</dc:format><dc:type
         rdf:resource="http://purl.org/dc/dcmitype/StillImage" /></cc:Work></rdf:RDF></metadata><defs
   id="defs78" /><sodipodi:namedview
   pagecolor="#ffffff"
   bordercolor="#666666"
   borderopacity="1"
   objecttolerance="10"
   gridtolerance="10"
   guidetolerance="10"
   inkscape:pageopacity="0"
   inkscape:pageshadow="2"
   inkscape:window-width="3840"
   inkscape:window-height="2047"
   id="namedview76"
   showgrid="false"
   inkscape:zoom="6.480668"
   inkscape:cx="74.532024"
   inkscape:cy="71.975784"
   inkscape:window-x="1920"
   inkscape:window-y="0"
   inkscape:window-maximized="1"
   inkscape:current-layer="Calque_1" />
<rect
   id="rect3785"
   width="194.1158"
   height="73.449219"
   x="0"
   y="0"
   style="fill:#ffffff;stroke-width:0.80887431" /><g
   id="g73"
   transform="translate(-7.7152538,-14.737494)">
	<g
   id="g71">
		<g
   id="g11">
			<radialGradient
   id="SVGID_1_"
   cx="92.619598"
   cy="104.3838"
   r="66.332001"
   gradientUnits="userSpaceOnUse">
				<stop
   offset="0.4"
   style="stop-color:#FECD1A"
   id="stop2" />
				<stop
   offset="0.6897"
   style="stop-color:#EF8227"
   id="stop4" />
				<stop
   offset="1"
   style="stop-color:#E20026"
   id="stop6" />
			</radialGradient>
			<path
   d="m 61.542,27.469 c 2.083,-1.256 4.229,-2.938 6.154,-4.891 1.508,-1.529 -5.119,-0.846 -6.712,0.516 -1.716,1.465 -3.479,3.084 -5.092,4.973 -0.943,1.103 3.585,0.644 5.65,-0.598 z m 59.696,16.883 c 2.084,-1.254 6.001,-4.297 7.928,-6.25 1.507,-1.528 -5.121,-0.846 -6.714,0.514 -1.717,1.467 -4.567,4.097 -6.181,5.986 -0.941,1.104 2.903,0.992 4.967,-0.25 z m 60.2,13.03 c -8.486,-5.284 -31.699,3.927 -40.503,4.979 -1.649,0.197 -2.251,-0.221 -1.862,-1.34 0.748,-2.156 3.691,-6.127 4.281,-7.496 0.561,-1.303 0.482,-5.791 -6.156,-5.791 -5.424,0 -10.398,2.52 -13.896,5.688 -3.332,2.846 -9.791,8.468 -13.765,8.468 -4.113,0 7.937,-12.433 8.603,-13.06 1.791,-1.684 -3.855,-1.266 -6.23,0.543 -0.947,0.721 -4.735,4.77 -7.104,8.693 -6.854,4.739 -13.675,5.84 -10.43,1.898 1.727,-2.096 4.646,-4.906 6.654,-7.137 2.804,-3.107 2.295,-5.152 -3.895,-5.152 -8.285,0 -9.162,0.721 -13.838,6.196 -0.867,1.017 -0.418,3.566 0.479,2.681 5.608,-5.549 5.481,-5.096 12.906,-5.096 -1.196,1.266 -3.322,2.533 -6.932,7.113 -3.216,4.086 -1.112,7.387 3.455,7.387 2.525,0 6.294,-1.182 9.741,-3.613 -0.412,2.129 0.441,3.654 3.694,3.654 3.768,0 8.069,-2.241 11.633,-4.734 -0.447,2.705 0.947,4.734 4.932,4.734 3.068,0 6.641,-1.205 10.329,-4.4 -0.021,2.441 1.704,4.379 4.916,4.379 7.821,0 34.835,-9.811 44.235,-4.143 1.176,0.708 1.124,-2.974 -1.247,-4.451 z m -56.129,5.097 c -5.128,0 5.141,-11.722 11.831,-11.722 4.005,0 -6.886,11.722 -11.831,11.722 z M 80.752,56.837 c -2.01,1.958 -6.404,5.243 -10.249,5.243 -2.841,0 2.819,-5.094 5.624,-9.201 2.678,-3.922 0.487,-5.096 -1.722,-5.096 -5.476,0 -10.817,3.842 -14.44,6.545 1.094,-1.467 2.797,-3.346 4.615,-5.746 1.009,-1.33 -5.027,-0.855 -6.57,1.178 -0.492,0.645 -1.035,1.366 -1.611,2.137 C 51.16,58.192 43.253,62.44 39.37,62.44 c -2.164,0 -2.95,-1.492 -1.604,-4.308 3.246,-6.79 14.431,-19.694 20.51,-25.345 2.761,-2.584 -5.533,-1.533 -7.435,0.379 -8.424,8.477 -16.904,17.938 -19.295,25.3 -1.321,4.069 -0.103,7.728 4.955,7.728 4.152,0 8.753,-2.057 12.66,-4.5 -0.963,1.312 -1.839,2.5 -2.543,3.459 -1.104,1.492 4.486,0.947 5.664,-0.559 4.421,-5.654 15.042,-12.609 17.998,-12.609 2.691,0 -6.578,6.945 -6.492,11.199 0.107,5.582 13.045,2.164 17.436,-3.584 0.684,-0.897 0.149,-3.368 -0.472,-2.763 z"
   id="path9"
   inkscape:connector-curvature="0"
   style="fill:url(#SVGID_1_)" />
		</g>
		<g
   id="g69">
			<g
   id="g67">
				<g
   id="g65">
					<path
   d="m 77.25,75.756 h -0.345 c -0.062,0 -0.113,-0.057 -0.113,-0.125 v -4.416 c 0,-0.062 0.044,-0.119 0.113,-0.119 h 0.345 c 0.062,0 0.113,0.051 0.113,0.119 v 4.416 c 0,0.062 -0.044,0.125 -0.113,0.125 z"
   id="path13"
   inkscape:connector-curvature="0"
   style="fill:#e20026;stroke:#e20026;stroke-width:0.2" />
					<path
   d="m 81.665,75.756 h -0.389 c -0.1,0 -0.169,-0.037 -0.201,-0.101 l -1.938,-3.681 c -0.006,-0.013 -0.012,-0.02 -0.019,-0.02 -0.007,0 -0.006,0.007 -0.006,0.02 v 3.662 c 0,0.062 -0.05,0.119 -0.113,0.119 h -0.326 c -0.062,0 -0.113,-0.013 -0.113,-0.075 v -4.409 c 0,-0.1 0.082,-0.176 0.182,-0.176 h 0.345 c 0.175,0 0.207,0.031 0.257,0.126 l 1.925,3.663 0.013,0.018 c 0.006,0 0.006,-0.012 0.006,-0.018 v -3.67 c 0,-0.062 0.05,-0.119 0.113,-0.119 h 0.333 c 0.069,0 0.113,0.057 0.113,0.119 v 4.359 c 0,0.101 -0.082,0.183 -0.182,0.183 z"
   id="path15"
   inkscape:connector-curvature="0"
   style="fill:#e20026;stroke:#e20026;stroke-width:0.2" />
					<path
   d="m 86.158,71.24 -1.154,4.083 c -0.113,0.396 -0.401,0.477 -0.64,0.477 -0.232,0 -0.527,-0.081 -0.64,-0.477 l -1.16,-4.083 c -0.006,-0.012 -0.006,-0.025 -0.006,-0.037 0,-0.062 0.05,-0.107 0.113,-0.107 h 0.364 c 0.05,0 0.1,0.045 0.113,0.095 l 1.091,3.995 c 0.025,0.088 0.056,0.131 0.125,0.131 0.062,0 0.094,-0.043 0.119,-0.131 l 1.097,-3.995 c 0.013,-0.05 0.057,-0.095 0.107,-0.095 h 0.37 c 0.062,0 0.106,0.045 0.106,0.107 0.002,0.012 0.002,0.026 -0.005,0.037 z"
   id="path17"
   inkscape:connector-curvature="0"
   style="fill:#e20026;stroke:#e20026;stroke-width:0.2" />
					<path
   d="m 89.417,75.769 c -0.238,0.024 -0.853,0.031 -1.223,0.031 -0.878,0 -1.336,-0.333 -1.336,-1.167 v -2.414 c 0,-0.834 0.458,-1.166 1.336,-1.166 0.37,0 0.959,0.012 1.223,0.037 0.038,0.006 0.062,0.051 0.062,0.088 v 0.313 c 0,0.044 -0.025,0.075 -0.069,0.075 H 88.2 c -0.665,0 -0.771,0.176 -0.771,0.652 v 0.871 h 1.925 c 0.069,0 0.125,0.057 0.125,0.126 v 0.238 c 0,0.069 -0.056,0.126 -0.125,0.126 h -1.925 v 1.053 c 0,0.477 0.106,0.652 0.771,0.652 h 1.21 c 0.044,0 0.069,0.031 0.069,0.076 v 0.319 c 0,0.04 -0.025,0.083 -0.062,0.09 z"
   id="path19"
   inkscape:connector-curvature="0"
   style="fill:#e20026;stroke:#e20026;stroke-width:0.2" />
					<path
   d="m 93.573,75.756 h -0.389 c -0.1,0 -0.169,-0.037 -0.201,-0.101 l -1.938,-3.681 c -0.006,-0.013 -0.012,-0.02 -0.019,-0.02 -0.007,0 -0.006,0.007 -0.006,0.02 v 3.662 c 0,0.062 -0.05,0.119 -0.113,0.119 h -0.326 c -0.062,0 -0.113,-0.013 -0.113,-0.075 v -4.409 c 0,-0.1 0.082,-0.176 0.182,-0.176 h 0.345 c 0.175,0 0.207,0.031 0.257,0.126 l 1.925,3.663 0.013,0.018 c 0.006,0 0.006,-0.012 0.006,-0.018 v -3.67 c 0,-0.062 0.05,-0.119 0.113,-0.119 h 0.333 c 0.069,0 0.113,0.057 0.113,0.119 v 4.359 c 0,0.101 -0.082,0.183 -0.182,0.183 z"
   id="path21"
   inkscape:connector-curvature="0"
   style="fill:#e20026;stroke:#e20026;stroke-width:0.2" />
					<path
   d="m 97.546,71.586 h -1.223 v 4.045 c 0,0.062 -0.044,0.125 -0.113,0.125 h -0.345 c -0.062,0 -0.113,-0.057 -0.113,-0.125 v -4.045 h -1.223 c -0.069,0 -0.125,-0.031 -0.125,-0.102 v -0.275 c 0,-0.062 0.056,-0.113 0.125,-0.113 h 3.017 c 0.069,0 0.119,0.045 0.119,0.113 v 0.275 c 0,0.064 -0.05,0.102 -0.119,0.102 z"
   id="path23"
   inkscape:connector-curvature="0"
   style="fill:#e20026;stroke:#e20026;stroke-width:0.2" />
					<path
   d="m 100.917,75.769 c -0.238,0.024 -0.853,0.031 -1.223,0.031 -0.878,0 -1.336,-0.333 -1.336,-1.167 v -2.414 c 0,-0.834 0.458,-1.166 1.336,-1.166 0.37,0 0.959,0.012 1.223,0.037 0.038,0.006 0.062,0.051 0.062,0.088 v 0.313 c 0,0.044 -0.025,0.075 -0.069,0.075 H 99.7 c -0.665,0 -0.771,0.176 -0.771,0.652 v 0.871 h 1.925 c 0.069,0 0.125,0.057 0.125,0.126 v 0.238 c 0,0.069 -0.056,0.126 -0.125,0.126 H 98.93 v 1.053 c 0,0.477 0.106,0.652 0.771,0.652 h 1.21 c 0.044,0 0.069,0.031 0.069,0.076 v 0.319 c 0,0.04 -0.025,0.083 -0.063,0.09 z"
   id="path25"
   inkscape:connector-curvature="0"
   style="fill:#e20026;stroke:#e20026;stroke-width:0.2" />
					<path
   d="m 103.556,75.8 c -1.016,0 -1.605,-0.54 -1.605,-1.737 v -2.848 c 0,-0.062 0.05,-0.119 0.119,-0.119 h 0.339 c 0.062,0 0.119,0.051 0.119,0.119 v 2.848 c 0,0.809 0.251,1.248 1.028,1.248 0.778,0 1.029,-0.433 1.029,-1.248 v -2.848 c 0,-0.062 0.05,-0.119 0.119,-0.119 h 0.338 c 0.063,0 0.119,0.051 0.119,0.119 v 2.848 c 0.001,1.197 -0.589,1.737 -1.605,1.737 z"
   id="path27"
   inkscape:connector-curvature="0"
   style="fill:#e20026;stroke:#e20026;stroke-width:0.2" />
					<path
   d="m 109.38,75.756 h -0.401 c -0.075,0 -0.112,0 -0.163,-0.082 l -1.123,-1.868 c -0.018,0 -0.037,0 -0.056,0 -0.038,0 -0.069,0 -0.106,0 -0.207,0 -0.357,-0.007 -0.689,-0.019 v 1.844 c 0,0.062 -0.045,0.125 -0.113,0.125 h -0.339 c -0.062,0 -0.113,-0.057 -0.113,-0.125 V 71.24 c 0,-0.088 0.038,-0.125 0.15,-0.138 0.27,-0.031 0.741,-0.05 1.104,-0.05 0.99,0 1.756,0.332 1.756,1.348 v 0.044 c 0,0.702 -0.414,1.116 -0.984,1.267 l 1.141,1.906 c 0.014,0.02 0.02,0.038 0.02,0.057 -0.002,0.045 -0.033,0.082 -0.084,0.082 z M 108.722,72.4 c 0,-0.627 -0.408,-0.834 -1.191,-0.834 -0.195,0 -0.539,0 -0.689,0.02 v 1.718 c 0.275,0.007 0.545,0.013 0.689,0.013 0.771,0 1.191,-0.194 1.191,-0.872 z"
   id="path29"
   inkscape:connector-curvature="0"
   style="fill:#e20026;stroke:#e20026;stroke-width:0.2" />
					<path
   d="m 111.448,75.8 c -0.439,0 -0.766,-0.044 -1.041,-0.088 -0.107,-0.019 -0.119,-0.044 -0.119,-0.112 v -0.252 c 0,-0.068 0.05,-0.1 0.106,-0.1 0.007,0 0.013,0 0.019,0 0.289,0.025 0.746,0.037 1.035,0.037 0.752,0 0.953,-0.301 0.953,-0.74 0,-0.312 -0.182,-0.488 -0.753,-0.84 l -0.608,-0.37 c -0.576,-0.351 -0.865,-0.671 -0.865,-1.173 0,-0.759 0.546,-1.109 1.499,-1.109 0.37,0 0.853,0.037 1.091,0.074 0.062,0.014 0.107,0.045 0.107,0.107 v 0.27 c 0,0.062 -0.045,0.1 -0.107,0.1 -0.006,0 -0.006,0 -0.012,0 -0.276,-0.018 -0.715,-0.037 -1.079,-0.037 -0.646,0 -0.922,0.139 -0.922,0.596 0,0.295 0.207,0.471 0.684,0.76 l 0.577,0.344 c 0.727,0.434 0.984,0.778 0.984,1.279 0,0.601 -0.313,1.254 -1.549,1.254 z"
   id="path31"
   inkscape:connector-curvature="0"
   style="fill:#e20026;stroke:#e20026;stroke-width:0.2" />
					<path
   d="m 116.933,75.8 c -0.477,0 -0.959,-0.031 -1.141,-0.063 -0.082,-0.012 -0.132,-0.062 -0.132,-0.156 v -4.309 c 0,-0.088 0.05,-0.145 0.132,-0.156 0.182,-0.031 0.664,-0.062 1.141,-0.062 1.16,0 1.9,0.596 1.9,1.95 v 0.847 c 0,1.34 -0.74,1.949 -1.9,1.949 z m 1.33,-2.797 c 0,-1.136 -0.577,-1.462 -1.33,-1.462 -0.295,0 -0.488,0.007 -0.695,0.02 v 3.737 c 0.2,0.013 0.4,0.013 0.695,0.013 0.753,0 1.33,-0.332 1.33,-1.461 z"
   id="path33"
   inkscape:connector-curvature="0"
   style="fill:#e20026;stroke:#e20026;stroke-width:0.2" />
					<path
   d="m 121.421,75.8 c -1.016,0 -1.605,-0.54 -1.605,-1.737 v -2.848 c 0,-0.062 0.051,-0.119 0.119,-0.119 h 0.34 c 0.062,0 0.119,0.051 0.119,0.119 v 2.848 c 0,0.809 0.25,1.248 1.027,1.248 0.778,0 1.029,-0.433 1.029,-1.248 v -2.848 c 0,-0.062 0.05,-0.119 0.119,-0.119 h 0.338 c 0.063,0 0.119,0.051 0.119,0.119 v 2.848 c 0,1.197 -0.588,1.737 -1.605,1.737 z"
   id="path35"
   inkscape:connector-curvature="0"
   style="fill:#e20026;stroke:#e20026;stroke-width:0.2" />
					<path
   d="m 129.521,75.756 h -0.307 c -0.068,0 -0.125,-0.057 -0.125,-0.125 v -3.719 c 0,-0.014 0,-0.02 -0.007,-0.02 -0.007,0 -0.007,0 -0.013,0.013 l -0.896,1.856 c -0.062,0.125 -0.125,0.182 -0.282,0.182 h -0.288 c -0.157,0 -0.22,-0.057 -0.283,-0.182 l -0.896,-1.856 c -0.006,-0.013 -0.006,-0.013 -0.012,-0.013 -0.007,0 -0.007,0.006 -0.007,0.02 v 3.719 c 0,0.068 -0.057,0.125 -0.126,0.125 h -0.307 c -0.069,0 -0.125,-0.057 -0.125,-0.125 v -4.353 c 0,-0.101 0.081,-0.183 0.182,-0.183 h 0.407 c 0.112,0 0.163,0.025 0.2,0.107 l 1.035,2.15 c 0.025,0.057 0.044,0.069 0.075,0.069 0.032,0 0.05,-0.013 0.075,-0.069 l 1.035,-2.15 c 0.037,-0.082 0.088,-0.107 0.201,-0.107 h 0.407 c 0.101,0 0.182,0.082 0.182,0.183 v 4.353 c 0,0.068 -0.055,0.125 -0.125,0.125 z"
   id="path37"
   inkscape:connector-curvature="0"
   style="fill:#e20026;stroke:#e20026;stroke-width:0.2" />
					<path
   d="m 132.36,75.8 c -0.984,0 -1.699,-0.577 -1.699,-1.97 v -0.809 c 0,-1.393 0.715,-1.969 1.699,-1.969 0.984,0 1.693,0.576 1.693,1.969 v 0.809 c 0.001,1.393 -0.708,1.97 -1.693,1.97 z m 1.116,-2.779 c 0,-1.054 -0.426,-1.455 -1.115,-1.455 -0.684,0 -1.123,0.401 -1.123,1.455 v 0.809 c 0,1.055 0.433,1.455 1.123,1.455 0.684,0 1.115,-0.4 1.115,-1.455 z"
   id="path39"
   inkscape:connector-curvature="0"
   style="fill:#e20026;stroke:#e20026;stroke-width:0.2" />
					<path
   d="m 138.177,75.756 h -0.389 c -0.1,0 -0.169,-0.037 -0.2,-0.101 l -1.938,-3.681 c -0.006,-0.013 -0.012,-0.02 -0.018,-0.02 -0.007,0 -0.007,0.007 -0.007,0.02 v 3.662 c 0,0.062 -0.05,0.119 -0.112,0.119 h -0.326 c -0.062,0 -0.113,-0.013 -0.113,-0.075 v -4.409 c 0,-0.1 0.082,-0.176 0.182,-0.176 h 0.346 c 0.175,0 0.207,0.031 0.256,0.126 l 1.926,3.663 0.013,0.018 c 0.007,0 0.007,-0.012 0.007,-0.018 v -3.67 c 0,-0.062 0.05,-0.119 0.112,-0.119 h 0.333 c 0.068,0 0.112,0.057 0.112,0.119 v 4.359 c -0.002,0.101 -0.083,0.183 -0.184,0.183 z"
   id="path41"
   inkscape:connector-curvature="0"
   style="fill:#e20026;stroke:#e20026;stroke-width:0.2" />
					<path
   d="m 140.766,75.8 c -0.477,0 -0.96,-0.031 -1.142,-0.063 -0.081,-0.012 -0.131,-0.062 -0.131,-0.156 v -4.309 c 0,-0.088 0.05,-0.145 0.131,-0.156 0.182,-0.031 0.665,-0.062 1.142,-0.062 1.16,0 1.9,0.596 1.9,1.95 v 0.847 c 0,1.34 -0.74,1.949 -1.9,1.949 z m 1.329,-2.797 c 0,-1.136 -0.576,-1.462 -1.329,-1.462 -0.295,0 -0.489,0.007 -0.696,0.02 v 3.737 c 0.201,0.013 0.401,0.013 0.696,0.013 0.753,0 1.329,-0.332 1.329,-1.461 z"
   id="path43"
   inkscape:connector-curvature="0"
   style="fill:#e20026;stroke:#e20026;stroke-width:0.2" />
					<path
   d="m 146.226,75.769 c -0.238,0.024 -0.853,0.031 -1.223,0.031 -0.878,0 -1.336,-0.333 -1.336,-1.167 v -2.414 c 0,-0.834 0.458,-1.166 1.336,-1.166 0.37,0 0.96,0.012 1.223,0.037 0.038,0.006 0.062,0.051 0.062,0.088 v 0.313 c 0,0.044 -0.024,0.075 -0.068,0.075 h -1.211 c -0.664,0 -0.771,0.176 -0.771,0.652 v 0.871 h 1.925 c 0.069,0 0.125,0.057 0.125,0.126 v 0.238 c 0,0.069 -0.056,0.126 -0.125,0.126 h -1.925 v 1.053 c 0,0.477 0.106,0.652 0.771,0.652 h 1.211 c 0.044,0 0.068,0.031 0.068,0.076 v 0.319 c 0,0.04 -0.024,0.083 -0.062,0.09 z"
   id="path45"
   inkscape:connector-curvature="0"
   style="fill:#e20026;stroke:#e20026;stroke-width:0.2" />
					<path
   d="m 152.087,75.756 h -0.389 c -0.1,0 -0.169,-0.037 -0.2,-0.101 l -1.938,-3.681 c -0.006,-0.013 -0.012,-0.02 -0.018,-0.02 -0.007,0 -0.007,0.007 -0.007,0.02 v 3.662 c 0,0.062 -0.05,0.119 -0.112,0.119 h -0.326 c -0.062,0 -0.113,-0.013 -0.113,-0.075 v -4.409 c 0,-0.1 0.082,-0.176 0.182,-0.176 h 0.346 c 0.175,0 0.207,0.031 0.256,0.126 l 1.926,3.663 0.013,0.018 c 0.007,0 0.007,-0.012 0.007,-0.018 v -3.67 c 0,-0.062 0.05,-0.119 0.112,-0.119 h 0.333 c 0.068,0 0.112,0.057 0.112,0.119 v 4.359 c -10e-4,0.101 -0.083,0.183 -0.184,0.183 z"
   id="path47"
   inkscape:connector-curvature="0"
   style="fill:#e20026;stroke:#e20026;stroke-width:0.2" />
					<path
   d="m 154.989,75.8 c -1.016,0 -1.605,-0.54 -1.605,-1.737 v -2.848 c 0,-0.062 0.05,-0.119 0.119,-0.119 h 0.338 c 0.062,0 0.119,0.051 0.119,0.119 v 2.848 c 0,0.809 0.252,1.248 1.029,1.248 0.777,0 1.028,-0.433 1.028,-1.248 v -2.848 c 0,-0.062 0.05,-0.119 0.119,-0.119 h 0.339 c 0.062,0 0.119,0.051 0.119,0.119 v 2.848 c 0.001,1.197 -0.589,1.737 -1.605,1.737 z"
   id="path49"
   inkscape:connector-curvature="0"
   style="fill:#e20026;stroke:#e20026;stroke-width:0.2" />
					<path
   d="m 161.384,75.756 h -0.307 c -0.069,0 -0.126,-0.057 -0.126,-0.125 v -3.719 c 0,-0.014 0,-0.02 -0.007,-0.02 -0.006,0 -0.006,0 -0.012,0.013 l -0.896,1.856 c -0.063,0.125 -0.126,0.182 -0.283,0.182 h -0.288 c -0.157,0 -0.22,-0.057 -0.282,-0.182 l -0.896,-1.856 c -0.006,-0.013 -0.006,-0.013 -0.013,-0.013 -0.007,0 -0.007,0.006 -0.007,0.02 v 3.719 c 0,0.068 -0.057,0.125 -0.125,0.125 h -0.307 c -0.07,0 -0.126,-0.057 -0.126,-0.125 v -4.353 c 0,-0.101 0.081,-0.183 0.182,-0.183 h 0.407 c 0.113,0 0.164,0.025 0.201,0.107 l 1.035,2.15 c 0.025,0.057 0.043,0.069 0.074,0.069 0.032,0 0.051,-0.013 0.076,-0.069 l 1.035,-2.15 c 0.037,-0.082 0.088,-0.107 0.2,-0.107 h 0.407 c 0.101,0 0.182,0.082 0.182,0.183 v 4.353 c 10e-4,0.068 -0.055,0.125 -0.124,0.125 z"
   id="path51"
   inkscape:connector-curvature="0"
   style="fill:#e20026;stroke:#e20026;stroke-width:0.2" />
					<path
   d="m 165.194,75.769 c -0.238,0.024 -0.853,0.031 -1.223,0.031 -0.878,0 -1.336,-0.333 -1.336,-1.167 v -2.414 c 0,-0.834 0.458,-1.166 1.336,-1.166 0.37,0 0.96,0.012 1.223,0.037 0.038,0.006 0.062,0.051 0.062,0.088 v 0.313 c 0,0.044 -0.024,0.075 -0.068,0.075 h -1.211 c -0.664,0 -0.771,0.176 -0.771,0.652 v 0.871 h 1.925 c 0.069,0 0.125,0.057 0.125,0.126 v 0.238 c 0,0.069 -0.056,0.126 -0.125,0.126 h -1.925 v 1.053 c 0,0.477 0.106,0.652 0.771,0.652 h 1.211 c 0.044,0 0.068,0.031 0.068,0.076 v 0.319 c 0.001,0.04 -0.024,0.083 -0.062,0.09 z m -0.338,-5.876 -0.709,0.789 c -0.057,0.063 -0.075,0.095 -0.145,0.095 h -0.338 c -0.038,0 -0.057,-0.019 -0.057,-0.044 0,-0.019 0.006,-0.044 0.025,-0.062 l 0.614,-0.777 c 0.056,-0.069 0.075,-0.095 0.15,-0.095 h 0.414 c 0.044,0 0.069,0.013 0.069,0.044 0.003,0.011 -0.004,0.03 -0.023,0.05 z"
   id="path53"
   inkscape:connector-curvature="0"
   style="fill:#e20026;stroke:#e20026;stroke-width:0.2" />
					<path
   d="m 169.351,75.756 h -0.401 c -0.075,0 -0.112,0 -0.163,-0.082 l -1.123,-1.868 c -0.018,0 -0.037,0 -0.056,0 -0.038,0 -0.069,0 -0.106,0 -0.207,0 -0.357,-0.007 -0.689,-0.019 v 1.844 c 0,0.062 -0.045,0.125 -0.113,0.125 h -0.339 c -0.062,0 -0.112,-0.057 -0.112,-0.125 V 71.24 c 0,-0.088 0.037,-0.125 0.15,-0.138 0.27,-0.031 0.74,-0.05 1.104,-0.05 0.99,0 1.756,0.332 1.756,1.348 v 0.044 c 0,0.702 -0.414,1.116 -0.984,1.267 l 1.141,1.906 c 0.014,0.02 0.02,0.038 0.02,0.057 -0.003,0.045 -0.035,0.082 -0.085,0.082 z M 168.692,72.4 c 0,-0.627 -0.408,-0.834 -1.191,-0.834 -0.195,0 -0.539,0 -0.689,0.02 v 1.718 c 0.275,0.007 0.545,0.013 0.689,0.013 0.771,0 1.191,-0.194 1.191,-0.872 z"
   id="path55"
   inkscape:connector-curvature="0"
   style="fill:#e20026;stroke:#e20026;stroke-width:0.2" />
					<path
   d="m 170.842,75.756 h -0.345 c -0.062,0 -0.113,-0.057 -0.113,-0.125 v -4.416 c 0,-0.062 0.044,-0.119 0.113,-0.119 h 0.345 c 0.062,0 0.112,0.051 0.112,0.119 v 4.416 c 0,0.062 -0.043,0.125 -0.112,0.125 z"
   id="path57"
   inkscape:connector-curvature="0"
   style="fill:#e20026;stroke:#e20026;stroke-width:0.2" />
					<path
   d="m 174.009,75.787 v 0.27 c 0,0.314 0.068,0.363 0.389,0.363 h 0.369 c 0.076,0 0.139,0.032 0.139,0.102 v 0.213 c 0,0.106 -0.188,0.15 -0.508,0.15 -0.615,0 -0.941,-0.163 -0.941,-0.822 v -0.281 c -0.834,-0.107 -1.417,-0.696 -1.417,-1.951 v -0.809 c 0,-1.393 0.715,-1.969 1.699,-1.969 0.985,0 1.693,0.576 1.693,1.969 v 0.809 c 0,1.261 -0.583,1.857 -1.423,1.956 z m 0.845,-2.766 c 0,-1.054 -0.426,-1.455 -1.116,-1.455 -0.684,0 -1.122,0.401 -1.122,1.455 v 0.809 c 0,1.055 0.432,1.455 1.122,1.455 0.684,0 1.116,-0.4 1.116,-1.455 z"
   id="path59"
   inkscape:connector-curvature="0"
   style="fill:#e20026;stroke:#e20026;stroke-width:0.2" />
					<path
   d="m 178.038,75.8 c -1.016,0 -1.605,-0.54 -1.605,-1.737 v -2.848 c 0,-0.062 0.051,-0.119 0.119,-0.119 h 0.34 c 0.062,0 0.119,0.051 0.119,0.119 v 2.848 c 0,0.809 0.25,1.248 1.027,1.248 0.778,0 1.029,-0.433 1.029,-1.248 v -2.848 c 0,-0.062 0.05,-0.119 0.119,-0.119 h 0.338 c 0.063,0 0.119,0.051 0.119,0.119 v 2.848 c 0.001,1.197 -0.588,1.737 -1.605,1.737 z"
   id="path61"
   inkscape:connector-curvature="0"
   style="fill:#e20026;stroke:#e20026;stroke-width:0.2" />
					<path
   d="m 183.317,75.769 c -0.238,0.024 -0.854,0.031 -1.223,0.031 -0.879,0 -1.336,-0.333 -1.336,-1.167 v -2.414 c 0,-0.834 0.457,-1.166 1.336,-1.166 0.369,0 0.959,0.012 1.223,0.037 0.037,0.006 0.062,0.051 0.062,0.088 v 0.313 c 0,0.044 -0.025,0.075 -0.069,0.075 h -1.21 c -0.665,0 -0.771,0.176 -0.771,0.652 v 0.871 h 1.926 c 0.068,0 0.125,0.057 0.125,0.126 v 0.238 c 0,0.069 -0.057,0.126 -0.125,0.126 h -1.926 v 1.053 c 0,0.477 0.106,0.652 0.771,0.652 h 1.21 c 0.044,0 0.069,0.031 0.069,0.076 v 0.319 c 0.001,0.04 -0.025,0.083 -0.062,0.09 z"
   id="path63"
   inkscape:connector-curvature="0"
   style="fill:#e20026;stroke:#e20026;stroke-width:0.2" />
				</g>
			</g>
		</g>
	</g>
</g>
</svg>