<svg xmlns="http://www.w3.org/2000/svg" xmlns:xlink="http://www.w3.org/1999/xlink" viewBox="0 0 127.5 127.5"><defs><style>.cls-1{isolation:isolate;}.cls-2{fill:#333132;}.cls-3{fill:#f1f2f2;}.cls-4{opacity:0.7;fill:url(#linear-gradient);}.cls-10,.cls-4,.cls-5,.cls-6,.cls-7,.cls-8,.cls-9{mix-blend-mode:multiply;}.cls-5,.cls-8,.cls-9{opacity:0.8;}.cls-5{fill:url(#linear-gradient-2);}.cls-6,.cls-7{opacity:0.9;}.cls-6{fill:url(#linear-gradient-3);}.cls-7{fill:url(#linear-gradient-4);}.cls-8{fill:url(#linear-gradient-5);}.cls-9{fill:url(#linear-gradient-6);}.cls-10{opacity:0.85;fill:url(#linear-gradient-7);}</style><linearGradient id="linear-gradient" x1="62.16" y1="43.66" x2="61.04" y2="43.19" gradientUnits="userSpaceOnUse"><stop offset="0" stop-color="#fff"/><stop offset="0.02" stop-color="#f2f2f3"/><stop offset="0.09" stop-color="#b9bbbd"/><stop offset="0.23" stop-color="#949697"/><stop offset="0.36" stop-color="#767778"/><stop offset="0.5" stop-color="#5e5f5f"/><stop offset="0.65" stop-color="#4d4d4e"/><stop offset="0.81" stop-color="#434343"/><stop offset="1" stop-color="#404040"/></linearGradient><linearGradient id="linear-gradient-2" x1="55.98" y1="59.16" x2="54.63" y2="58.57" gradientUnits="userSpaceOnUse"><stop offset="0" stop-color="#fff"/><stop offset="0.05" stop-color="#bcbec0"/><stop offset="0.05" stop-color="#babcbe"/><stop offset="0.19" stop-color="#959697"/><stop offset="0.33" stop-color="#767778"/><stop offset="0.48" stop-color="#5e5f5f"/><stop offset="0.64" stop-color="#4d4d4e"/><stop offset="0.8" stop-color="#434343"/><stop offset="1" stop-color="#404040"/></linearGradient><linearGradient id="linear-gradient-3" x1="69.14" y1="78.81" x2="65.22" y2="73.53" gradientUnits="userSpaceOnUse"><stop offset="0" stop-color="#fff"/><stop offset="0.03" stop-color="#bcbec0"/><stop offset="0.07" stop-color="#b4b6b8"/><stop offset="0.28" stop-color="#8b8c8d"/><stop offset="0.48" stop-color="#6a6b6c"/><stop offset="0.67" stop-color="#535354"/><stop offset="0.85" stop-color="#454545"/><stop offset="1" stop-color="#404040"/></linearGradient><linearGradient id="linear-gradient-4" x1="83.82" y1="58.16" x2="80.79" y2="60.11" gradientUnits="userSpaceOnUse"><stop offset="0" stop-color="#fff"/><stop offset="0.04" stop-color="#bcbec0"/><stop offset="0.06" stop-color="#b9bbbd"/><stop offset="0.22" stop-color="#9b9c9e"/><stop offset="0.4" stop-color="#848485"/><stop offset="0.58" stop-color="#737374"/><stop offset="0.77" stop-color="#696969"/><stop offset="1" stop-color="#666"/></linearGradient><linearGradient id="linear-gradient-5" x1="45.73" y1="72.5" x2="48.31" y2="68.18" gradientUnits="userSpaceOnUse"><stop offset="0" stop-color="#fff"/><stop offset="0.03" stop-color="#bcbec0"/><stop offset="0.16" stop-color="#adafb1"/><stop offset="0.57" stop-color="#808284"/><stop offset="0.78" stop-color="#6e7072"/><stop offset="0.81" stop-color="#626365"/><stop offset="0.88" stop-color="#494a4a"/><stop offset="0.92" stop-color="#404040"/></linearGradient><linearGradient id="linear-gradient-6" x1="64.62" y1="83.43" x2="66.54" y2="79.98" gradientUnits="userSpaceOnUse"><stop offset="0" stop-color="#fff"/><stop offset="0.17" stop-color="#bcbec0"/><stop offset="0.18" stop-color="#babcbe"/><stop offset="0.28" stop-color="#959697"/><stop offset="0.38" stop-color="#767778"/><stop offset="0.49" stop-color="#5e5f5f"/><stop offset="0.61" stop-color="#4d4d4e"/><stop offset="0.73" stop-color="#434343"/><stop offset="0.88" stop-color="#404040"/><stop offset="0.96" stop-color="#bcbec0"/><stop offset="1" stop-color="#fff"/></linearGradient><linearGradient id="linear-gradient-7" x1="71.35" y1="46.36" x2="71.01" y2="43.9" gradientUnits="userSpaceOnUse"><stop offset="0" stop-color="#fff"/><stop offset="0.04" stop-color="#bcbec0"/><stop offset="0.04" stop-color="#babcbe"/><stop offset="0.18" stop-color="#959697"/><stop offset="0.33" stop-color="#767778"/><stop offset="0.48" stop-color="#5e5f5f"/><stop offset="0.63" stop-color="#4d4d4e"/><stop offset="0.8" stop-color="#434343"/><stop offset="1" stop-color="#404040"/></linearGradient></defs><title>SBC_isotype_circle_white</title><g class="cls-1"><g id="Calque_1" data-name="Calque 1"><circle class="cls-2" cx="63.75" cy="63.75" r="63.75"/><path class="cls-3" d="M61.55,70,55.39,56.76,54.44,59l3.78,9.13Zm-.19.37L21.93,48.94a2.32,2.32,0,0,1-1.31-2.1c.09-.89,1.21-1.25,1.8-1.41L57.5,36.25c1.15-.29,2.35-.66,3.31.07a1.67,1.67,0,0,1,.39,2l-2.32,4.45L48.32,62.8l3.36,1.8,2.11-5.08h0l7.33-17.61h0L62.32,39c.31-.86.77-1.22,1.26-1.08a4.71,4.71,0,0,0,2.57,0,.61.61,0,0,1,.7.21,4.83,4.83,0,0,1,.57,1.1l.81,1.87,1.84-.22c-.41-.79-1.31-2.49-1.43-2.79a2,2,0,0,1,.21-2,5,5,0,0,0-3.92-7.9,4.9,4.9,0,0,0-4.84,4.32,2.88,2.88,0,0,1-2.2,2.28L20,43.55a2.38,2.38,0,0,1-1.9-.61A4.53,4.53,0,0,0,15,41.75,4.65,4.65,0,0,0,15,51a4.54,4.54,0,0,0,3.32-1.45.52.52,0,0,1,.64-.17L57.1,73.13ZM18.85,43.84h0Zm36.3,1.3,2.13-.23,1.11-2.11L53,43.47c-.4.05-.66-.39-.66-.39A3.83,3.83,0,0,0,49,41.2a3.9,3.9,0,0,0-.2,7.79c1,.08,1.28.57,1.85,1.58S52,53.34,52.4,54.15l.94-1.78-1-2.08a4,4,0,0,1,.46-3.57A3.08,3.08,0,0,1,55.15,45.14Zm57.14-12.89a4.79,4.79,0,0,0-4.51,3.25c-.47,1.32-1.41,1.41-1.41,1.41l-45,5.53-.89,2.13,47-5c.93-.11,1.13.44.69.74L80,58.68l1.56,2.91,28-19.78a1.21,1.21,0,0,1,1.15-.13,4.71,4.71,0,0,0,1.56.27,4.85,4.85,0,0,0,0-9.7Zm-19,49.88C91.91,82,91.44,81,91,80.19L71.59,43.81,69.46,44l16,37.19s.62,1.45.16,1.84-1-.08-1.45-.36L66.18,73,61.82,76,82.27,88.78c.38.26,2,1,2.07,2.32a8.38,8.38,0,1,0,8.91-9ZM71,87.68c-.87-.42-1.51-.69-1.82-1.27L65.77,79l-4.13-2.59,3.89,9.39a3.11,3.11,0,0,1-.27,3A4.78,4.78,0,1,0,71,87.68Zm5.27-26.6L47.46,79.92c-3.11,1.94-1.57-1.42-1.57-1.42l3.92-9.42L46.2,66.84,40.09,78.68a8.55,8.55,0,0,1-4.85,3.65,8.48,8.48,0,1,0,10.89,8.11A8.64,8.64,0,0,0,46,89.2c-.3-2.3.65-3,.9-3.15L77.71,64.31Z"/><g id="Shadows"><polygon class="cls-4" points="61.85 44.42 62.72 42.27 61.35 42.44 60.47 44.57 61.85 44.42"/><polygon class="cls-5" points="55.25 60.98 56.22 58.55 55.38 56.76 54.45 59.04 55.25 60.98"/><polygon class="cls-6" points="67.79 79.76 72.69 76.5 66.18 72.97 61.82 76.04 67.79 79.76"/><polygon class="cls-7" points="81.57 61.58 84.74 59.34 84.75 59.34 82.94 56.77 82.93 56.77 80.01 58.67 80.01 58.68 81.56 61.58 81.57 61.58"/><polygon class="cls-8" points="47.81 73.88 49.81 69.09 46.2 66.84 43.89 71.32 47.81 73.88"/><polygon class="cls-9" points="69.17 86.28 66.09 79.69 61.96 77.18 64.73 83.86 69.17 86.28"/><polygon class="cls-10" points="72.91 46.28 71.59 43.81 69.46 44.04 70.52 46.52 72.91 46.28"/></g></g></g></svg>